<svg width="452" height="186" viewBox="0 0 452 186" fill="none" xmlns="http://www.w3.org/2000/svg">
<path d="M261.596 144.659C256.452 149.082 250.692 152.477 244.314 154.843C237.937 157.209 231.328 158.392 224.487 158.392C219.241 158.392 214.175 157.697 209.289 156.309C204.454 154.971 199.903 153.068 195.634 150.6C191.416 148.079 187.559 145.071 184.062 141.573C180.564 138.076 177.555 134.218 175.035 130.001C172.566 125.732 170.638 121.18 169.249 116.346C167.912 111.46 167.243 106.394 167.243 101.147C167.243 95.9014 167.912 90.8353 169.249 85.9492C170.638 81.0632 172.566 76.5114 175.035 72.2939C177.555 68.0251 180.564 64.1419 184.062 60.6445C187.559 57.1471 191.416 54.1641 195.634 51.6953C199.903 49.1751 204.454 47.2464 209.289 45.9092C214.175 44.5205 219.241 43.8262 224.487 43.8262C231.328 43.8262 237.937 45.0091 244.314 47.375C250.692 49.6895 256.452 53.084 261.596 57.5586L249.869 76.8457C246.629 73.3483 242.797 70.6738 238.374 68.8223C233.951 66.9193 229.322 65.9678 224.487 65.9678C219.601 65.9678 215.024 66.8936 210.755 68.7451C206.486 70.5967 202.757 73.1169 199.568 76.3057C196.38 79.443 193.859 83.1719 192.008 87.4922C190.156 91.7611 189.23 96.3128 189.23 101.147C189.23 105.982 190.156 110.534 192.008 114.803C193.859 119.02 196.38 122.723 199.568 125.912C202.757 129.101 206.486 131.621 210.755 133.473C215.024 135.324 219.601 136.25 224.487 136.25C229.322 136.25 233.951 135.324 238.374 133.473C242.797 131.57 246.629 128.869 249.869 125.372L261.596 144.659ZM349.159 113.954C349.159 120.126 348.053 125.886 345.842 131.235C343.63 136.533 340.621 141.136 336.815 145.045C333.009 148.902 328.535 151.963 323.392 154.226C318.3 156.437 312.822 157.543 306.959 157.543C301.147 157.543 295.67 156.437 290.526 154.226C285.435 151.963 280.96 148.902 277.103 145.045C273.297 141.136 270.288 136.533 268.076 131.235C265.865 125.886 264.759 120.126 264.759 113.954C264.759 107.679 265.865 101.868 268.076 96.5186C270.288 91.1696 273.297 86.5664 277.103 82.709C280.96 78.8001 285.435 75.7399 290.526 73.5283C295.67 71.3167 301.147 70.2109 306.959 70.2109C312.822 70.2109 318.3 71.2653 323.392 73.374C328.535 75.4313 333.009 78.3887 336.815 82.2461C340.621 86.0521 343.63 90.6553 345.842 96.0557C348.053 101.405 349.159 107.371 349.159 113.954ZM327.943 113.954C327.943 110.56 327.378 107.499 326.246 104.773C325.166 101.996 323.674 99.6302 321.771 97.6758C319.868 95.6699 317.631 94.1527 315.06 93.124C312.539 92.0439 309.839 91.5039 306.959 91.5039C304.079 91.5039 301.353 92.0439 298.781 93.124C296.261 94.1527 294.049 95.6699 292.146 97.6758C290.295 99.6302 288.829 101.996 287.749 104.773C286.669 107.499 286.129 110.56 286.129 113.954C286.129 117.143 286.669 120.1 287.749 122.826C288.829 125.552 290.295 127.918 292.146 129.924C294.049 131.93 296.261 133.524 298.781 134.707C301.353 135.839 304.079 136.404 306.959 136.404C309.839 136.404 312.539 135.864 315.06 134.784C317.631 133.704 319.868 132.187 321.771 130.232C323.674 128.278 325.166 125.912 326.246 123.135C327.378 120.357 327.943 117.297 327.943 113.954ZM381.793 156L350.316 73.374H374.31L392.362 124.909L410.338 73.374H434.408L402.932 156H381.793Z" fill="white"/>
<path d="M14.3867 156H6.25879V123.517H2.20898V115.389H14.3867V156ZM51.9961 130.313C51.9961 132.919 51.7318 135.468 51.2031 137.96C50.6934 140.433 49.9476 142.774 48.9658 144.983C47.984 147.192 46.7852 149.231 45.3691 151.101C43.9531 152.97 42.3483 154.603 40.5547 156H29.5947C30.7464 155.264 31.8604 154.442 32.9365 153.536C34.0127 152.63 35.0322 151.658 35.9951 150.619C36.9769 149.581 37.8831 148.486 38.7139 147.334C39.5446 146.182 40.2809 144.993 40.9229 143.766C40.0921 144.313 39.2048 144.785 38.2607 145.182C37.3167 145.559 36.3444 145.748 35.3438 145.748C33.0404 145.748 30.973 145.37 29.1416 144.615C27.3102 143.841 25.7432 142.774 24.4404 141.415C23.1566 140.037 22.1654 138.404 21.4668 136.516C20.7871 134.628 20.4473 132.56 20.4473 130.313C20.4473 128.123 20.8343 126.056 21.6084 124.111C22.4014 122.148 23.487 120.439 24.8652 118.985C26.2435 117.513 27.8766 116.352 29.7646 115.502C31.6527 114.652 33.7012 114.228 35.9102 114.228C38.138 114.228 40.2243 114.652 42.1689 115.502C44.1325 116.352 45.8411 117.513 47.2949 118.985C48.7487 120.439 49.891 122.148 50.7217 124.111C51.5713 126.056 51.9961 128.123 51.9961 130.313ZM43.3018 130.313C43.3018 129.275 43.1224 128.274 42.7637 127.312C42.4049 126.349 41.8952 125.499 41.2344 124.763C40.5924 124.026 39.8184 123.441 38.9121 123.007C38.0059 122.573 37.0052 122.355 35.9102 122.355C34.7962 122.355 33.7861 122.573 32.8799 123.007C31.9925 123.422 31.2279 123.989 30.5859 124.706C29.944 125.424 29.4531 126.264 29.1133 127.227C28.7734 128.189 28.6035 129.218 28.6035 130.313C28.6035 131.39 28.7734 132.409 29.1133 133.372C29.4531 134.316 29.944 135.147 30.5859 135.864C31.2279 136.582 31.9925 137.148 32.8799 137.563C33.7861 137.979 34.7962 138.187 35.9102 138.187C37.0241 138.187 38.0342 137.979 38.9404 137.563C39.8656 137.148 40.6491 136.582 41.291 135.864C41.9329 135.147 42.4238 134.316 42.7637 133.372C43.1224 132.409 43.3018 131.39 43.3018 130.313Z" fill="white"/>
<path d="M107.413 126.242C107.413 128.981 107.053 131.623 106.334 134.169C105.642 136.687 104.646 139.053 103.346 141.266C102.045 143.452 100.496 145.458 98.6973 147.284C96.8988 149.083 94.8927 150.632 92.6792 151.933C90.4657 153.233 88.0861 154.243 85.5405 154.962C83.0226 155.654 80.394 156 77.6548 156H59.7251V96.4834H77.6548C80.394 96.4834 83.0226 96.8431 85.5405 97.5625C88.0861 98.2542 90.4657 99.2503 92.6792 100.551C94.8927 101.851 96.8988 103.415 98.6973 105.241C100.496 107.039 102.045 109.045 103.346 111.259C104.646 113.445 105.642 115.81 106.334 118.356C107.053 120.874 107.413 123.502 107.413 126.242ZM95.5015 126.242C95.5015 123.779 95.0311 121.469 94.0903 119.311C93.1772 117.152 91.9045 115.271 90.272 113.666C88.6672 112.034 86.7718 110.747 84.5859 109.806C82.4277 108.865 80.1174 108.395 77.6548 108.395H71.7197V144.088H77.6548C80.1174 144.088 82.4277 143.632 84.5859 142.719C86.7718 141.778 88.6672 140.505 90.272 138.9C91.9045 137.268 93.1772 135.373 94.0903 133.214C95.0311 131.028 95.5015 128.704 95.5015 126.242ZM138.333 156H126.463V108.395H108.575V96.4834H156.18V108.395H138.333V156ZM178.053 156H166.141V108.395H160.206V96.4834H178.053V156Z" fill="#EA4659"/>
</svg>
